<svg width="64" height="63" viewBox="0 0 64 63" fill="none" xmlns="http://www.w3.org/2000/svg">
<g clip-path="url(#clip0_301_2977)">
<path d="M19.194 34.1344C17.5326 36.5739 14.9791 38.2628 12.084 38.8369C9.58383 38.3876 7.31809 37.082 5.6758 35.1441C4.0335 33.2061 3.11711 30.7569 3.08398 28.2169V18.0695C6.04502 18.0727 8.9814 17.5311 11.7465 16.4719L12.084 16.3369L12.399 16.4494C14.2753 17.166 16.2324 17.6496 18.2265 17.8894C18.2606 17.1312 18.366 16.3779 18.5415 15.6394C16.716 15.4315 14.9242 14.9931 13.209 14.3344L12.894 14.2219C12.3727 14.0208 11.7953 14.0208 11.274 14.2219L10.9365 14.357C8.42771 15.3083 5.76707 15.7962 3.08398 15.7969C2.48725 15.7969 1.91498 16.034 1.49303 16.456C1.07107 16.8779 0.833984 17.4502 0.833984 18.0469V28.1945C0.879836 31.2495 1.9799 34.1949 3.94799 36.532C5.91608 38.8691 8.63127 40.4543 11.634 41.0194H12.084H12.5115C15.7349 40.3812 18.6149 38.5892 20.6115 35.9794C20.5358 35.8721 20.4681 35.7593 20.409 35.6419C19.9566 35.1796 19.5497 34.6747 19.194 34.1344Z" fill="#9fef00"/>
<path d="M61.584 15.8194C58.8911 15.824 56.2207 15.328 53.709 14.3569L53.394 14.2444C52.8727 14.0432 52.2953 14.0432 51.774 14.2444L51.4365 14.3794C49.6891 15.0299 47.8676 15.4607 46.014 15.6619C46.2855 16.3915 46.4889 17.1447 46.6215 17.9119C48.5471 17.6946 50.4372 17.2335 52.2465 16.5394L52.584 16.4043L52.899 16.5169C55.6676 17.5941 58.6133 18.1435 61.584 18.1369V28.2843C61.5509 30.8243 60.6345 33.2736 58.9922 35.2115C57.3499 37.1494 55.0841 38.4551 52.584 38.9043C51.0906 38.6098 49.6725 38.0152 48.4156 37.1566C47.1586 36.298 46.089 35.1933 45.2715 33.9093C44.9721 34.6989 44.5873 35.4534 44.124 36.1593C46.1096 38.7256 48.9531 40.4909 52.134 41.1319H52.584H53.0115C56.0183 40.5714 58.7387 38.9881 60.7113 36.6506C62.6838 34.313 63.7871 31.3651 63.834 28.3069V18.1593C63.8461 17.8564 63.7969 17.5541 63.6892 17.2707C63.5816 16.9872 63.4178 16.7284 63.2076 16.5099C62.9975 16.2913 62.7453 16.1175 62.4663 15.9988C62.1873 15.8802 61.8872 15.8191 61.584 15.8194Z" fill="#9fef00"/>
<path d="M33.4365 2.83689L34.629 7.53945C36.5933 7.88334 38.4591 8.65115 40.0965 9.78945L44.2815 7.31444L45.834 8.86694L43.359 13.0519C44.4883 14.6693 45.2557 16.5111 45.609 18.4519L50.334 19.7119V21.9619L45.609 23.1769C45.2765 25.1445 44.5077 27.0127 43.359 28.6444L45.834 32.8294L44.2815 34.3819L40.0965 31.8844C38.4626 33.0292 36.5953 33.7976 34.629 34.1344L33.4365 38.8594H31.1865L29.9715 34.1344C28.0051 33.7976 26.1378 33.0292 24.504 31.8844L20.319 34.3819L18.7665 32.8294L21.2639 28.6444C20.1069 27.0172 19.3373 25.1471 19.0139 23.1769L14.289 21.9619V19.7119L19.0139 18.5194C19.3373 16.5492 20.1069 14.6791 21.2639 13.0519L18.834 8.8894L20.409 7.33689L24.5715 9.8119C26.2148 8.66931 28.0889 7.90125 30.0615 7.56191L31.254 2.85941H33.504L33.4365 2.83689ZM33.504 0.609414H31.254C30.74 0.59444 30.2364 0.756001 29.827 1.06713C29.4177 1.37826 29.1271 1.82021 29.004 2.31944L28.149 5.67191C26.8585 6.0216 25.6183 6.5358 24.459 7.2019L21.489 5.42445C21.1417 5.21837 20.7453 5.10953 20.3415 5.10941C20.0454 5.1077 19.7518 5.16444 19.4777 5.27641C19.2036 5.38838 18.9542 5.5534 18.744 5.76193L17.169 7.31444C16.8152 7.66911 16.5898 8.13171 16.5287 8.62895C16.4676 9.12619 16.5741 9.62962 16.8314 10.0594L18.609 13.0519C17.9502 14.2042 17.4435 15.4369 17.1015 16.7194L13.7265 17.5744C13.2273 17.6976 12.7853 17.9881 12.4741 18.3974C12.163 18.8068 12.0015 19.3105 12.0165 19.8244V22.0744C12.0015 22.5884 12.163 23.092 12.4741 23.5013C12.7853 23.9107 13.2273 24.2012 13.7265 24.3244L17.1015 25.1794C17.4393 26.4633 17.9462 27.6966 18.609 28.8469L16.8314 31.8394C16.5741 32.2692 16.4676 32.7727 16.5287 33.2699C16.5898 33.7672 16.8152 34.2298 17.169 34.5844L18.744 36.1594C19.163 36.5751 19.7287 36.8094 20.319 36.8119C20.7295 36.8084 21.1322 36.7 21.489 36.4969L24.4815 34.7194C25.6318 35.3822 26.8651 35.8891 28.149 36.2269L29.004 39.6019C29.1271 40.1012 29.4177 40.5431 29.827 40.8543C30.2364 41.1654 30.74 41.3269 31.254 41.3119H33.504C34.0179 41.3269 34.5216 41.1654 34.9309 40.8543C35.3403 40.5431 35.6308 40.1012 35.754 39.6019L36.609 36.2269C37.8901 35.881 39.1224 35.3744 40.2765 34.7194L43.2689 36.4969C43.6988 36.7543 44.2022 36.8609 44.6994 36.7997C45.1967 36.7386 45.6593 36.5132 46.0139 36.1594L47.5665 34.5844C47.915 34.2313 48.1371 33.7729 48.1982 33.2806C48.2592 32.7882 48.1558 32.2895 47.904 31.8619L46.1265 28.8469C46.7853 27.7026 47.292 26.4773 47.6339 25.2019L51.0315 24.3244C51.5265 24.1969 51.9634 23.9046 52.2701 23.4956C52.5768 23.0866 52.7351 22.5854 52.719 22.0744V19.8244C52.7364 19.3165 52.5813 18.8175 52.279 18.409C51.9766 18.0004 51.5449 17.7063 51.054 17.5744L47.6339 16.6519C47.2919 15.3837 46.7851 14.1658 46.1265 13.0294L47.904 10.0369C48.1558 9.60941 48.2592 9.11069 48.1982 8.61831C48.1371 8.12593 47.915 7.66753 47.5665 7.31444L46.0139 5.73941C45.8037 5.53088 45.5544 5.36592 45.2803 5.25395C45.0061 5.14198 44.7126 5.08518 44.4165 5.08689C44.0117 5.07991 43.6134 5.18927 43.2689 5.40192L40.2765 7.17944C39.125 6.51355 37.8923 5.99923 36.609 5.64939L35.754 2.29691C35.6308 1.79769 35.3403 1.35574 34.9309 1.04461C34.5216 0.733479 34.0179 0.571918 33.504 0.586892V0.609414Z" fill="white"/>
<path d="M32.829 19.5769C31.4565 18.9469 30.579 18.4968 30.579 17.5968C30.5457 17.252 30.642 16.9072 30.849 16.6294C31.025 16.3818 31.2493 16.1725 31.5084 16.0139C31.7675 15.8554 32.056 15.7509 32.3565 15.7069C32.7198 15.652 33.0906 15.676 33.4438 15.7769C33.7971 15.8778 34.1245 16.0534 34.404 16.2919C34.5176 16.3823 34.648 16.4494 34.7876 16.4894C34.9272 16.5293 35.0734 16.5412 35.2176 16.5245C35.3619 16.5078 35.5015 16.4627 35.6283 16.3919C35.755 16.3211 35.8666 16.226 35.9565 16.1119C36.1417 15.8751 36.2267 15.5751 36.193 15.2763C36.1594 14.9776 36.0098 14.704 35.7765 14.5144C35.1275 13.9907 34.351 13.649 33.5265 13.5244V12.4219C33.5265 12.1235 33.408 11.8374 33.197 11.6264C32.986 11.4154 32.6999 11.2969 32.4015 11.2969C32.1031 11.2969 31.817 11.4154 31.606 11.6264C31.395 11.8374 31.2765 12.1235 31.2765 12.4219V13.6593C30.3543 13.9578 29.561 14.5608 29.0265 15.3694C28.5226 16.0818 28.2984 16.9547 28.3965 17.8219C28.6215 20.0719 30.489 20.9269 31.9965 21.6244C33.504 22.3219 34.2465 22.7044 34.2465 23.6044C34.2806 23.9389 34.1927 24.2745 33.999 24.5494C33.8384 24.7947 33.6265 25.0023 33.3779 25.1576C33.1293 25.313 32.8499 25.4126 32.559 25.4494C32.2131 25.5044 31.8594 25.4847 31.5218 25.3915C31.1841 25.2984 30.8703 25.1339 30.6015 24.9094L29.544 24.0544C29.3113 23.8664 29.0134 23.7786 28.7159 23.8102C28.4185 23.8419 28.1457 23.9904 27.9577 24.2231C27.7698 24.4558 27.682 24.7537 27.7136 25.0512C27.7453 25.3487 27.8938 25.6214 28.1265 25.8094L29.184 26.6644C29.7873 27.1468 30.4969 27.4785 31.254 27.6319V28.8919C31.254 29.1903 31.3725 29.4764 31.5835 29.6874C31.7945 29.8984 32.0806 30.0169 32.379 30.0169C32.6773 30.0169 32.9635 29.8984 33.1745 29.6874C33.3855 29.4764 33.504 29.1903 33.504 28.8919V27.5194C34.4772 27.251 35.318 26.6345 35.8665 25.7869C36.3537 25.0843 36.5695 24.2289 36.474 23.3794C36.204 21.1519 34.3365 20.2969 32.829 19.5769Z" fill="#9fef00"/>
<path d="M32.334 46.7119C32.0356 46.7119 31.7495 46.8305 31.5385 47.0414C31.3275 47.2524 31.209 47.5385 31.209 47.8369V61.3369C31.209 61.6353 31.3275 61.9215 31.5385 62.1325C31.7495 62.3434 32.0356 62.4619 32.334 62.4619C32.6324 62.4619 32.9185 62.3434 33.1295 62.1325C33.3404 61.9215 33.459 61.6353 33.459 61.3369V47.8369C33.459 47.5385 33.3404 47.2524 33.1295 47.0414C32.9185 46.8305 32.6324 46.7119 32.334 46.7119Z" fill="white"/>
<path d="M39.084 39.9619C38.7856 39.9619 38.4995 40.0805 38.2885 40.2914C38.0775 40.5024 37.959 40.7885 37.959 41.0869V47.8369C37.959 48.1353 38.0775 48.4215 38.2885 48.6325C38.4995 48.8434 38.7856 48.9619 39.084 48.9619C39.3824 48.9619 39.6685 48.8434 39.8795 48.6325C40.0904 48.4215 40.209 48.1353 40.209 47.8369V41.0869C40.209 40.7885 40.0904 40.5024 39.8795 40.2914C39.6685 40.0805 39.3824 39.9619 39.084 39.9619Z" fill="white"/>
<path d="M39.084 53.4619C38.7856 53.4619 38.4995 53.5805 38.2885 53.7914C38.0775 54.0024 37.959 54.2885 37.959 54.5869V57.9619C37.959 58.2603 38.0775 58.5465 38.2885 58.7575C38.4995 58.9684 38.7856 59.0869 39.084 59.0869C39.3824 59.0869 39.6685 58.9684 39.8795 58.7575C40.0904 58.5465 40.209 58.2603 40.209 57.9619V54.5869C40.209 54.2885 40.0904 54.0024 39.8795 53.7914C39.6685 53.5805 39.3824 53.4619 39.084 53.4619Z" fill="white"/>
<path d="M25.584 39.9619C25.2856 39.9619 24.9995 40.0805 24.7885 40.2914C24.5775 40.5024 24.459 40.7885 24.459 41.0869V47.8369C24.459 48.1353 24.5775 48.4215 24.7885 48.6325C24.9995 48.8434 25.2856 48.9619 25.584 48.9619C25.8824 48.9619 26.1685 48.8434 26.3795 48.6325C26.5904 48.4215 26.709 48.1353 26.709 47.8369V41.0869C26.709 40.7885 26.5904 40.5024 26.3795 40.2914C26.1685 40.0805 25.8824 39.9619 25.584 39.9619Z" fill="white"/>
<path d="M25.584 53.4619C25.2856 53.4619 24.9995 53.5805 24.7885 53.7914C24.5775 54.0024 24.459 54.2885 24.459 54.5869V57.9619C24.459 58.2603 24.5775 58.5465 24.7885 58.7575C24.9995 58.9684 25.2856 59.0869 25.584 59.0869C25.8824 59.0869 26.1685 58.9684 26.3795 58.7575C26.5904 58.5465 26.709 58.2603 26.709 57.9619V54.5869C26.709 54.2885 26.5904 54.0024 26.3795 53.7914C26.1685 53.5805 25.8824 53.4619 25.584 53.4619Z" fill="white"/>
<path d="M45.834 42.2119C45.5356 42.2119 45.2495 42.3305 45.0385 42.5414C44.8275 42.7524 44.709 43.0385 44.709 43.3369V54.5869C44.709 54.8853 44.8275 55.1715 45.0385 55.3825C45.2495 55.5934 45.5356 55.7119 45.834 55.7119C46.1324 55.7119 46.4185 55.5934 46.6295 55.3825C46.8404 55.1715 46.959 54.8853 46.959 54.5869V43.3369C46.959 43.0385 46.8404 42.7524 46.6295 42.5414C46.4185 42.3305 46.1324 42.2119 45.834 42.2119Z" fill="white"/>
<path d="M18.834 42.2119C18.5356 42.2119 18.2495 42.3305 18.0385 42.5414C17.8275 42.7524 17.709 43.0385 17.709 43.3369V54.5869C17.709 54.8853 17.8275 55.1715 18.0385 55.3825C18.2495 55.5934 18.5356 55.7119 18.834 55.7119C19.1324 55.7119 19.4185 55.5934 19.6295 55.3825C19.8404 55.1715 19.959 54.8853 19.959 54.5869V43.3369C19.959 43.0385 19.8404 42.7524 19.6295 42.5414C19.4185 42.3305 19.1324 42.2119 18.834 42.2119Z" fill="white"/>
</g>
<defs>
<clipPath id="clip0_301_2977">
<rect width="63" height="61.875" fill="white" transform="translate(0.833984 0.586914)"/>
</clipPath>
</defs>
</svg>
