<svg width="64" height="63" viewBox="0 0 64 63" fill="none" xmlns="http://www.w3.org/2000/svg">
<g clip-path="url(#clip0_301_2999)">
<path d="M18.5592 33.7496C16.8978 36.1891 14.3443 37.878 11.4492 38.4521C8.94906 38.0029 6.68333 36.6972 5.04103 34.7593C3.39873 32.8214 2.48235 30.3721 2.44922 27.8321V17.6847C5.41025 17.6879 8.34663 17.1464 11.1117 16.0871L11.4492 15.9521L11.7643 16.0647C13.6405 16.7813 15.5976 17.2649 17.5917 17.5046C17.6258 16.7464 17.7313 15.9931 17.9067 15.2546C16.0812 15.0468 14.2894 14.6083 12.5742 13.9497L12.2592 13.8371C11.7379 13.636 11.1605 13.636 10.6393 13.8371L10.3017 13.9722C7.79294 14.9236 5.13231 15.4114 2.44922 15.4122C1.85248 15.4122 1.28022 15.6492 0.858261 16.0712C0.436304 16.4932 0.199219 17.0654 0.199219 17.6622V27.8097C0.24507 30.8647 1.34513 33.8101 3.31322 36.1472C5.28132 38.4843 7.9965 40.0696 10.9992 40.6346H11.4492H11.8767C15.1001 39.9964 17.9801 38.2045 19.9767 35.5947C19.901 35.4873 19.8334 35.3745 19.7742 35.2572C19.3218 34.7948 18.9149 34.29 18.5592 33.7496Z" fill="#9fef00"/>
<path d="M60.9492 15.4346C58.2563 15.4392 55.586 14.9433 53.0742 13.9721L52.7592 13.8596C52.2379 13.6585 51.6605 13.6585 51.1393 13.8596L50.8017 13.9946C49.0543 14.6451 47.2328 15.0759 45.3792 15.2771C45.6508 16.0067 45.8542 16.76 45.9867 17.5271C47.9123 17.3099 49.8025 16.8487 51.6117 16.1546L51.9492 16.0196L52.2643 16.1321C55.0328 17.2093 57.9785 17.7588 60.9492 17.7521V27.8996C60.9161 30.4396 59.9997 32.8888 58.3574 34.8267C56.7151 36.7646 54.4494 38.0703 51.9492 38.5196C50.4558 38.225 49.0377 37.6304 47.7808 36.7719C46.5239 35.9133 45.4543 34.8086 44.6367 33.5246C44.3373 34.3141 43.9525 35.0686 43.4892 35.7746C45.4749 38.3408 48.3184 40.1061 51.4992 40.7471H51.9492H52.3767C55.3835 40.1866 58.1039 38.6033 60.0765 36.2658C62.0491 33.9283 63.1523 30.9804 63.1992 27.9221V17.7746C63.2113 17.4716 63.1621 17.1694 63.0545 16.8859C62.9468 16.6025 62.783 16.3437 62.5729 16.1251C62.3627 15.9066 62.1106 15.7327 61.8316 15.614C61.5525 15.4954 61.2524 15.4344 60.9492 15.4346Z" fill="#9fef00"/>
<path d="M32.8017 2.45213L33.9942 7.15469C35.9585 7.49858 37.8243 8.26639 39.4617 9.40469L43.6467 6.92967L45.1992 8.48218L42.7242 12.6671C43.8535 14.2845 44.621 16.1264 44.9742 18.0671L49.6992 19.3271V21.5771L44.9742 22.7921C44.6418 24.7598 43.8729 26.628 42.7242 28.2596L45.1992 32.4447L43.6467 33.9972L39.4617 31.4996C37.8279 32.6444 35.9605 33.4128 33.9942 33.7496L32.8017 38.4746H30.5517L29.3367 33.7496C27.3704 33.4128 25.503 32.6444 23.8692 31.4996L19.6842 33.9972L18.1317 32.4447L20.6292 28.2596C19.4722 26.6325 18.7025 24.7623 18.3792 22.7921L13.6542 21.5771V19.3271L18.3792 18.1346C18.7025 16.1644 19.4722 14.2943 20.6292 12.6671L18.1992 8.50463L19.7742 6.95213L23.9367 9.42714C25.58 8.28455 27.4541 7.51648 29.4267 7.17714L30.6192 2.47465H32.8692L32.8017 2.45213ZM32.8692 0.224649H30.6192C30.1052 0.209674 29.6016 0.371235 29.1922 0.682366C28.7829 0.993498 28.4924 1.43545 28.3692 1.93467L27.5142 5.28715C26.2237 5.63683 24.9835 6.15103 23.8242 6.81713L20.8542 5.03968C20.5069 4.83361 20.1106 4.72477 19.7067 4.72465C19.4106 4.72294 19.1171 4.77967 18.8429 4.89164C18.5688 5.00361 18.3194 5.16863 18.1092 5.37717L16.5342 6.92967C16.1804 7.28434 15.9551 7.74695 15.8939 8.24419C15.8328 8.74143 15.9393 9.24486 16.1967 9.67467L17.9742 12.6671C17.3154 13.8194 16.8087 15.0522 16.4667 16.3347L13.0917 17.1897C12.5925 17.3129 12.1505 17.6033 11.8393 18.0127C11.5282 18.4221 11.3667 18.9257 11.3817 19.4397V21.6897C11.3667 22.2036 11.5282 22.7072 11.8393 23.1166C12.1505 23.526 12.5925 23.8165 13.0917 23.9397L16.4667 24.7947C16.8045 26.0786 17.3114 27.3118 17.9742 28.4621L16.1967 31.4547C15.9393 31.8845 15.8328 32.3879 15.8939 32.8851C15.9551 33.3824 16.1804 33.845 16.5342 34.1997L18.1092 35.7746C18.5283 36.1903 19.0939 36.4246 19.6842 36.4271C20.0947 36.4236 20.4974 36.3152 20.8542 36.1122L23.8467 34.3347C24.997 34.9974 26.2303 35.5044 27.5142 35.8422L28.3692 39.2172C28.4924 39.7164 28.7829 40.1584 29.1922 40.4695C29.6016 40.7806 30.1052 40.9421 30.6192 40.9271H32.8692C33.3831 40.9421 33.8868 40.7806 34.2962 40.4695C34.7055 40.1584 34.996 39.7164 35.1192 39.2172L35.9742 35.8422C37.2553 35.4962 38.4876 34.9897 39.6417 34.3347L42.6342 36.1122C43.064 36.3695 43.5674 36.4761 44.0646 36.415C44.5619 36.3538 45.0245 36.1284 45.3792 35.7746L46.9317 34.1997C47.2802 33.8466 47.5023 33.3882 47.5634 32.8958C47.6244 32.4034 47.521 31.9047 47.2692 31.4772L45.4917 28.4621C46.1505 27.3178 46.6572 26.0925 46.9992 24.8171L50.3967 23.9397C50.8917 23.8121 51.3286 23.5198 51.6353 23.1108C51.9421 22.7018 52.1004 22.2006 52.0842 21.6897V19.4397C52.1016 18.9317 51.9465 18.4328 51.6442 18.0242C51.3418 17.6157 50.9101 17.3215 50.4192 17.1897L46.9992 16.2672C46.6571 14.999 46.1503 13.7811 45.4917 12.6446L47.2692 9.65215C47.521 9.22464 47.6244 8.72592 47.5634 8.23354C47.5023 7.74117 47.2802 7.28276 46.9317 6.92967L45.3792 5.35465C45.1689 5.14611 44.9196 4.98116 44.6455 4.86919C44.3713 4.75722 44.0778 4.70041 43.7817 4.70213C43.3769 4.69514 42.9786 4.8045 42.6342 5.01716L39.6417 6.79468C38.4902 6.12878 37.2575 5.61447 35.9742 5.26463L35.1192 1.91215C34.996 1.41293 34.7055 0.970976 34.2962 0.659844C33.8868 0.348713 33.3831 0.187152 32.8692 0.202127V0.224649Z" fill="white"/>
<path d="M32.1942 19.1921C30.8217 18.5621 29.9442 18.1121 29.9442 17.2121C29.911 16.8672 30.0072 16.5224 30.2142 16.2446C30.3902 15.997 30.6145 15.7877 30.8736 15.6292C31.1327 15.4706 31.4212 15.3661 31.7217 15.3221C32.085 15.2673 32.4558 15.2912 32.809 15.3921C33.1623 15.4931 33.4898 15.6687 33.7692 15.9071C33.8829 15.9976 34.0132 16.0647 34.1528 16.1046C34.2924 16.1445 34.4386 16.1565 34.5828 16.1397C34.7271 16.123 34.8667 16.078 34.9935 16.0072C35.1203 15.9363 35.2318 15.8412 35.3217 15.7271C35.5069 15.4904 35.5919 15.1903 35.5582 14.8916C35.5246 14.5928 35.375 14.3192 35.1417 14.1296C34.4928 13.6059 33.7162 13.2643 32.8917 13.1396V12.0371C32.8917 11.7387 32.7732 11.4526 32.5622 11.2416C32.3512 11.0307 32.0651 10.9121 31.7667 10.9121C31.4683 10.9121 31.1822 11.0307 30.9712 11.2416C30.7603 11.4526 30.6417 11.7387 30.6417 12.0371V13.2746C29.7195 13.573 28.9262 14.176 28.3917 14.9846C27.8878 15.6971 27.6636 16.57 27.7617 17.4371C27.9867 19.6871 29.8542 20.5421 31.3617 21.2396C32.8692 21.9371 33.6117 22.3196 33.6117 23.2196C33.6458 23.5541 33.5579 23.8898 33.3642 24.1646C33.2036 24.41 32.9917 24.6175 32.7431 24.7729C32.4945 24.9283 32.2151 25.0278 31.9242 25.0646C31.5783 25.1196 31.2246 25.0999 30.887 25.0067C30.5493 24.9136 30.2355 24.7492 29.9667 24.5246L28.9092 23.6696C28.6765 23.4817 28.3786 23.3938 28.0811 23.4255C27.7837 23.4571 27.5109 23.6056 27.3229 23.8384C27.135 24.0711 27.0472 24.369 27.0788 24.6664C27.1105 24.9639 27.259 25.2367 27.4917 25.4246L28.5492 26.2797C29.1525 26.7621 29.8621 27.0937 30.6192 27.2471V28.5071C30.6192 28.8055 30.7377 29.0916 30.9487 29.3026C31.1597 29.5136 31.4458 29.6321 31.7442 29.6321C32.0426 29.6321 32.3288 29.5136 32.5397 29.3026C32.7507 29.0916 32.8692 28.8055 32.8692 28.5071V27.1346C33.8425 26.8663 34.6833 26.2497 35.2317 25.4021C35.7189 24.6996 35.9347 23.8442 35.8392 22.9946C35.5692 20.7671 33.7017 19.9121 32.1942 19.1921Z" fill="#9fef00"/>
<path d="M31.6992 46.3271C31.4009 46.3271 31.1147 46.4457 30.9037 46.6567C30.6928 46.8676 30.5742 47.1538 30.5742 47.4521V60.9521C30.5742 61.2505 30.6928 61.5367 30.9037 61.7477C31.1147 61.9587 31.4009 62.0771 31.6992 62.0771C31.9976 62.0771 32.2837 61.9587 32.4947 61.7477C32.7057 61.5367 32.8242 61.2505 32.8242 60.9521V47.4521C32.8242 47.1538 32.7057 46.8676 32.4947 46.6567C32.2837 46.4457 31.9976 46.3271 31.6992 46.3271Z" fill="white"/>
<path d="M38.4492 39.5771C38.1509 39.5771 37.8647 39.6957 37.6537 39.9067C37.4428 40.1176 37.3242 40.4038 37.3242 40.7021V47.4522C37.3242 47.7505 37.4428 48.0367 37.6537 48.2477C37.8647 48.4587 38.1509 48.5772 38.4492 48.5772C38.7476 48.5772 39.0337 48.4587 39.2447 48.2477C39.4557 48.0367 39.5742 47.7505 39.5742 47.4522V40.7021C39.5742 40.4038 39.4557 40.1176 39.2447 39.9067C39.0337 39.6957 38.7476 39.5771 38.4492 39.5771Z" fill="white"/>
<path d="M38.4492 53.0771C38.1509 53.0771 37.8647 53.1957 37.6537 53.4067C37.4428 53.6176 37.3242 53.9038 37.3242 54.2021V57.5771C37.3242 57.8755 37.4428 58.1617 37.6537 58.3727C37.8647 58.5837 38.1509 58.7021 38.4492 58.7021C38.7476 58.7021 39.0337 58.5837 39.2447 58.3727C39.4557 58.1617 39.5742 57.8755 39.5742 57.5771V54.2021C39.5742 53.9038 39.4557 53.6176 39.2447 53.4067C39.0337 53.1957 38.7476 53.0771 38.4492 53.0771Z" fill="white"/>
<path d="M24.9492 39.5771C24.6509 39.5771 24.3647 39.6957 24.1537 39.9067C23.9428 40.1176 23.8242 40.4038 23.8242 40.7021V47.4522C23.8242 47.7505 23.9428 48.0367 24.1537 48.2477C24.3647 48.4587 24.6509 48.5772 24.9492 48.5772C25.2476 48.5772 25.5337 48.4587 25.7447 48.2477C25.9557 48.0367 26.0742 47.7505 26.0742 47.4522V40.7021C26.0742 40.4038 25.9557 40.1176 25.7447 39.9067C25.5337 39.6957 25.2476 39.5771 24.9492 39.5771Z" fill="white"/>
<path d="M24.9492 53.0771C24.6509 53.0771 24.3647 53.1957 24.1537 53.4067C23.9428 53.6176 23.8242 53.9038 23.8242 54.2021V57.5771C23.8242 57.8755 23.9428 58.1617 24.1537 58.3727C24.3647 58.5837 24.6509 58.7021 24.9492 58.7021C25.2476 58.7021 25.5337 58.5837 25.7447 58.3727C25.9557 58.1617 26.0742 57.8755 26.0742 57.5771V54.2021C26.0742 53.9038 25.9557 53.6176 25.7447 53.4067C25.5337 53.1957 25.2476 53.0771 24.9492 53.0771Z" fill="white"/>
<path d="M45.1992 41.8271C44.9009 41.8271 44.6147 41.9457 44.4037 42.1567C44.1928 42.3676 44.0742 42.6538 44.0742 42.9521V54.2021C44.0742 54.5005 44.1928 54.7867 44.4037 54.9977C44.6147 55.2087 44.9009 55.3271 45.1992 55.3271C45.4976 55.3271 45.7837 55.2087 45.9947 54.9977C46.2057 54.7867 46.3242 54.5005 46.3242 54.2021V42.9521C46.3242 42.6538 46.2057 42.3676 45.9947 42.1567C45.7837 41.9457 45.4976 41.8271 45.1992 41.8271Z" fill="white"/>
<path d="M18.1992 41.8271C17.9009 41.8271 17.6147 41.9457 17.4037 42.1567C17.1928 42.3676 17.0742 42.6538 17.0742 42.9521V54.2021C17.0742 54.5005 17.1928 54.7867 17.4037 54.9977C17.6147 55.2087 17.9009 55.3271 18.1992 55.3271C18.4976 55.3271 18.7837 55.2087 18.9947 54.9977C19.2057 54.7867 19.3242 54.5005 19.3242 54.2021V42.9521C19.3242 42.6538 19.2057 42.3676 18.9947 42.1567C18.7837 41.9457 18.4976 41.8271 18.1992 41.8271Z" fill="white"/>
</g>
<defs>
<clipPath id="clip0_301_2999">
<rect width="63" height="61.875" fill="white" transform="translate(0.199219 0.202148)"/>
</clipPath>
</defs>
</svg>
