<svg width="63" height="58" viewBox="0 0 63 58" fill="none" xmlns="http://www.w3.org/2000/svg">
<g clip-path="url(#clip0_301_3013)">
<path d="M45.9518 9.63696C45.9345 10.479 45.8345 11.3174 45.6532 12.1399C48.8292 14.226 51.4379 17.0676 53.2453 20.4101C55.0528 23.7525 56.0026 27.4912 56.0095 31.291C56.0056 31.9585 55.9673 32.6253 55.8948 33.2888C56.6697 33.3277 57.4388 33.4431 58.1911 33.6333C58.1911 32.8525 58.3288 32.0947 58.3288 31.337C58.3241 26.9573 57.1806 22.6541 55.0107 18.8497C52.8408 15.0454 49.719 11.8706 45.9518 9.63696Z" fill="#FF6900"/>
<path d="M33.0466 54.254C29.6397 54.2362 26.2805 53.4514 23.2184 51.9577C22.9376 52.6726 22.5997 53.3637 22.2081 54.0244C25.5937 55.6379 29.2961 56.4772 33.0466 56.4814C37.4136 56.4911 41.7062 55.3506 45.4925 53.1747C45.0202 52.5726 44.6195 51.9176 44.2984 51.2229C40.8741 53.1917 36.9966 54.2363 33.0466 54.254Z" fill="#FF6900"/>
<path d="M15.9621 13.7472C15.8195 13.6403 15.654 13.568 15.4786 13.5361C15.3033 13.5042 15.1228 13.5136 14.9517 13.5635L9.39474 15.2628C9.24396 15.308 9.10355 15.3825 8.98156 15.482C8.85957 15.5815 8.75836 15.704 8.68373 15.8426C8.6091 15.9812 8.5625 16.1331 8.54659 16.2898C8.53068 16.4464 8.54578 16.6046 8.59102 16.7554C8.63625 16.9061 8.71073 17.0465 8.81022 17.1685C8.90971 17.2905 9.03224 17.3917 9.17084 17.4664C9.30944 17.541 9.46139 17.5876 9.618 17.6035C9.77461 17.6194 9.93282 17.6043 10.0836 17.5591L12.3799 16.8243C10.4604 19.4693 9.08795 22.4706 8.34273 25.6525C7.59752 28.8345 7.49452 32.1331 8.03986 35.3554H8.68289C9.25113 35.3586 9.81862 35.3969 10.3821 35.4702C10.1228 34.1309 9.99201 32.7699 9.99172 31.4057C9.98822 26.7282 11.4321 22.1642 14.1251 18.3398V20.6361C14.1281 20.7869 14.1607 20.9356 14.2212 21.0738C14.2817 21.2119 14.3688 21.3368 14.4775 21.4413C14.5863 21.5458 14.7146 21.6278 14.855 21.6827C14.9955 21.7376 15.1454 21.7643 15.2962 21.7613C15.5947 21.7437 15.8752 21.6126 16.0801 21.3949C16.2851 21.1771 16.3989 20.8892 16.3984 20.5902L16.2606 14.8724C16.3236 14.6759 16.329 14.4655 16.2761 14.2661C16.2231 14.0667 16.1142 13.8866 15.9621 13.7472Z" fill="#FF6900"/>
<path d="M27.3288 15.2168C27.0231 15.2152 26.7286 15.1007 26.5021 14.8953L24.2058 12.599C23.994 12.3805 23.8755 12.0882 23.8755 11.7839C23.8755 11.4795 23.994 11.1872 24.2058 10.9687L26.5021 8.67238C26.6092 8.56533 26.7363 8.48039 26.8761 8.42245C27.016 8.36452 27.1659 8.33472 27.3173 8.33472C27.4687 8.33472 27.6186 8.36452 27.7585 8.42245C27.8983 8.48039 28.0254 8.56533 28.1325 8.67238C28.2395 8.77944 28.3245 8.90652 28.3824 9.04639C28.4404 9.18626 28.4702 9.33617 28.4702 9.48756C28.4702 9.63895 28.4404 9.78886 28.3824 9.92873C28.3245 10.0686 28.2395 10.1957 28.1325 10.3027L26.6399 11.7724L28.1325 13.265C28.2401 13.3717 28.3256 13.4987 28.3838 13.6386C28.4421 13.7785 28.4721 13.9286 28.4721 14.0802C28.4721 14.2317 28.4421 14.3818 28.3838 14.5217C28.3256 14.6616 28.2401 14.7886 28.1325 14.8953C27.9119 15.0956 27.6266 15.2097 27.3288 15.2168Z" fill="#FF6900"/>
<path d="M38.7874 15.2168C38.5626 15.2137 38.3438 15.1446 38.1579 15.0183C37.9721 14.8919 37.8274 14.7138 37.7418 14.506C37.6562 14.2981 37.6336 14.0698 37.6766 13.8492C37.7195 13.6286 37.8263 13.4255 37.9836 13.265L39.4533 11.7724L37.9836 10.3027C37.876 10.196 37.7906 10.069 37.7323 9.92913C37.6741 9.78922 37.644 9.63914 37.644 9.48757C37.644 9.336 37.6741 9.18593 37.7323 9.04601C37.7906 8.9061 37.876 8.77913 37.9836 8.6724C38.0867 8.56256 38.2112 8.47502 38.3494 8.41518C38.4877 8.35534 38.6367 8.32446 38.7874 8.32446C38.938 8.32446 39.087 8.35534 39.2253 8.41518C39.3635 8.47502 39.488 8.56256 39.5911 8.6724L41.8874 10.9687C41.995 11.0754 42.0804 11.2024 42.1387 11.3423C42.197 11.4822 42.227 11.6323 42.227 11.7839C42.227 11.9354 42.197 12.0855 42.1387 12.2254C42.0804 12.3653 41.995 12.4923 41.8874 12.599L39.5911 14.8953C39.3754 15.1033 39.0869 15.2186 38.7874 15.2168Z" fill="#FF6900"/>
<path d="M30.7503 17.5132C30.5849 17.5581 30.4105 17.5581 30.2451 17.5132C30.1092 17.4471 29.9877 17.3548 29.8876 17.2416C29.7875 17.1284 29.7107 16.9966 29.6616 16.8536C29.6125 16.7107 29.5922 16.5594 29.6017 16.4086C29.6112 16.2578 29.6503 16.1103 29.7169 15.9747L34.3095 6.78948C34.3753 6.65342 34.4678 6.532 34.5816 6.43247C34.6953 6.33295 34.828 6.25737 34.9716 6.21022C35.1152 6.16307 35.2668 6.14532 35.4174 6.15805C35.568 6.17078 35.7145 6.21371 35.8481 6.28429C35.984 6.35043 36.1055 6.44276 36.2056 6.55595C36.3058 6.66914 36.3826 6.80096 36.4316 6.9439C36.4807 7.08684 36.501 7.23806 36.4915 7.38889C36.482 7.53972 36.4429 7.68716 36.3763 7.82281L31.7837 17.008C31.6694 17.174 31.5143 17.3077 31.3333 17.3962C31.1523 17.4847 30.9515 17.525 30.7503 17.5132Z" fill="#FF6900"/>
<path d="M50.797 32.4391C53.6935 34.2829 57.0784 35.2111 60.5102 35.1028C60.5102 35.1028 62.2784 50.1206 50.797 55.402C39.3155 50.1206 41.0836 35.1028 41.0836 35.1028C44.5155 35.2111 47.9004 34.2829 50.797 32.4391ZM50.797 30.1428C50.3105 30.1411 49.8361 30.2938 49.4422 30.5791C46.9423 32.1304 44.0481 32.9277 41.1066 32.8754C40.5424 32.8713 39.9965 33.0751 39.573 33.4478C39.1495 33.8205 38.878 34.336 38.8103 34.8961C38.8103 35.585 36.9962 51.6361 49.8555 57.5606C50.1582 57.6985 50.4872 57.769 50.8199 57.7672C51.1521 57.7649 51.4803 57.6946 51.7843 57.5606C64.6206 51.6361 62.8984 35.585 62.8065 34.8961C62.7389 34.336 62.4673 33.8205 62.0438 33.4478C61.6203 33.0751 61.0744 32.8713 60.5102 32.8754C57.5603 32.9374 54.656 32.1395 52.1518 30.5791C51.7514 30.2892 51.2682 30.1361 50.774 30.1428H50.797Z" fill="white"/>
<path d="M15.3881 32.439L16.1459 35.4472C17.4068 35.6486 18.6026 36.1442 19.6363 36.8939L22.3 35.3094L23.3103 36.2968L21.7259 38.9606C22.4456 39.9914 22.9314 41.1669 23.1496 42.405L26.1807 43.2087V44.6324L23.1726 45.3902C22.9461 46.6439 22.4527 47.8342 21.7259 48.8805L23.3103 51.5442L22.3 52.5316L19.6363 50.9472C18.5973 51.6874 17.4039 52.182 16.1459 52.3939L15.3881 55.402H13.9874L13.2066 52.3939C11.9497 52.1782 10.7571 51.6839 9.71624 50.9472L7.05252 52.5316L6.06513 51.5442L7.64958 48.8805C6.92275 47.8342 6.42936 46.6439 6.2029 45.3902L3.19476 44.6324V43.2087L6.2029 42.4509C6.41474 41.1929 6.9094 39.9995 7.64958 38.9606L6.06513 36.2968L7.05252 35.3094L9.71624 36.8939C10.752 36.1479 11.9468 35.6527 13.2066 35.4472L13.9874 32.439H15.3881ZM15.3881 30.1428H13.9874C13.4659 30.1263 12.9544 30.2878 12.537 30.6009C12.1196 30.9139 11.8213 31.3597 11.6911 31.865L11.2548 33.5413C10.7019 33.7196 10.1644 33.9423 9.64735 34.2072L8.15477 33.3346C7.71846 33.0776 7.20941 32.9721 6.7069 33.0344C6.20439 33.0967 5.73663 33.3233 5.37627 33.6791L4.3659 34.6665C4.00479 35.0284 3.77482 35.5006 3.71242 36.0081C3.65003 36.5155 3.75873 37.0293 4.0214 37.4679L4.894 38.9606C4.6348 39.4802 4.41233 40.0173 4.22812 40.568L2.5518 40.9813C2.04657 41.1114 1.60071 41.4098 1.28768 41.8272C0.974637 42.2446 0.81308 42.7561 0.82958 43.2776V44.7013C0.81308 45.2228 0.974637 45.7343 1.28768 46.1517C1.60071 46.5691 2.04657 46.8674 2.5518 46.9976L4.25104 47.4109C4.41743 47.9647 4.63259 48.5026 4.894 49.0183L4.0214 50.5109C3.75873 50.9496 3.65003 51.4633 3.71242 51.9708C3.77482 52.4783 4.00479 52.9504 4.3659 53.3124L5.35329 54.2998C5.56785 54.5126 5.82229 54.681 6.10206 54.7953C6.38184 54.9096 6.68143 54.9675 6.98364 54.9657C7.39673 54.9729 7.80321 54.8613 8.15477 54.6442L9.64735 53.7717C10.1688 54.0269 10.7056 54.2493 11.2548 54.4376L11.6911 56.1139C11.8213 56.6191 12.1196 57.0649 12.537 57.378C12.9544 57.691 13.4659 57.8526 13.9874 57.8361H15.3881C15.9096 57.8526 16.4211 57.691 16.8385 57.378C17.2559 57.0649 17.5542 56.6191 17.6844 56.1139L18.0977 54.4376C18.6499 54.2575 19.1874 54.0349 19.7051 53.7717L21.1977 54.6442C21.5522 54.8545 21.9567 54.9656 22.3689 54.9657C22.6711 54.9675 22.9706 54.9096 23.2504 54.7953C23.5302 54.681 23.7846 54.5126 23.9992 54.2998L24.9866 53.3124C25.3513 52.9532 25.5856 52.4824 25.6522 51.9748C25.7188 51.4673 25.6138 50.952 25.354 50.5109L24.4585 49.0183C24.7273 48.5031 24.9501 47.9653 25.1244 47.4109L26.8007 46.9976C27.3102 46.8719 27.7612 46.5754 28.0788 46.1576C28.3963 45.7398 28.5612 45.2258 28.5459 44.7013V43.2776C28.5637 42.7591 28.4053 42.25 28.0968 41.833C27.7882 41.4161 27.3476 41.1158 26.8466 40.9813L25.1244 40.522C24.9501 39.9751 24.7273 39.4448 24.4585 38.9376L25.354 37.445C25.6167 37.0063 25.7254 36.4925 25.663 35.9851C25.6007 35.4776 25.3707 35.0055 25.0096 34.6435L23.9992 33.6561C23.7846 33.4433 23.5302 33.2749 23.2504 33.1606C22.9706 33.0464 22.6711 32.9884 22.3689 32.9902C21.9567 32.9903 21.5522 33.1013 21.1977 33.3117L19.7281 34.1843C19.205 33.9154 18.6595 33.6925 18.0977 33.5183L17.6844 31.842C17.5542 31.3368 17.2559 30.8909 16.8385 30.5779C16.4211 30.2649 15.9096 30.1033 15.3881 30.1198V30.1428Z" fill="white"/>
<path d="M44.5281 2.58731V20.9577H21.5651V2.58731H44.5281ZM44.5281 0.291016H21.5651C20.9561 0.291016 20.372 0.532944 19.9414 0.963584C19.5108 1.39422 19.2688 1.9783 19.2688 2.58731V20.9577C19.2688 21.5667 19.5108 22.1508 19.9414 22.5814C20.372 23.0121 20.9561 23.254 21.5651 23.254H44.5281C45.1371 23.254 45.7211 23.0121 46.1518 22.5814C46.5824 22.1508 46.8244 21.5667 46.8244 20.9577V2.58731C46.8244 1.9783 46.5824 1.39422 46.1518 0.963584C45.7211 0.532944 45.1371 0.291016 44.5281 0.291016Z" fill="white"/>
<path d="M14.6762 41.6244C15.1304 41.6244 15.5744 41.7591 15.952 42.0114C16.3296 42.2637 16.6239 42.6224 16.7977 43.042C16.9715 43.4616 17.017 43.9233 16.9284 44.3687C16.8398 44.8142 16.6211 45.2233 16.2999 45.5444C15.9788 45.8656 15.5697 46.0843 15.1242 46.1729C14.6788 46.2615 14.217 46.216 13.7974 46.0422C13.3779 45.8684 13.0192 45.5741 12.7669 45.1965C12.5146 44.8189 12.3799 44.3749 12.3799 43.9207C12.3799 43.3117 12.6219 42.7276 13.0525 42.297C13.4832 41.8664 14.0672 41.6244 14.6762 41.6244ZM14.6762 39.3281C13.7679 39.3281 12.8799 39.5975 12.1247 40.1021C11.3695 40.6068 10.7808 41.324 10.4332 42.1632C10.0856 43.0024 9.99465 43.9258 10.1719 44.8167C10.3491 45.7076 10.7865 46.5259 11.4288 47.1682C12.071 47.8105 12.8894 48.2479 13.7803 48.4251C14.6712 48.6023 15.5946 48.5113 16.4338 48.1637C17.2729 47.8161 17.9902 47.2275 18.4948 46.4722C18.9994 45.717 19.2688 44.829 19.2688 43.9207C19.2688 42.7027 18.785 41.5345 17.9237 40.6733C17.0624 39.812 15.8943 39.3281 14.6762 39.3281Z" fill="#FF6900"/>
<path d="M50.4296 48.743C50.279 48.7448 50.1297 48.7151 49.9912 48.6558C49.8528 48.5965 49.7284 48.5088 49.6259 48.3985L46.5718 45.3445C46.4642 45.2377 46.3787 45.1107 46.3204 44.9708C46.2622 44.8309 46.2321 44.6808 46.2321 44.5292C46.2321 44.3777 46.2622 44.2276 46.3204 44.0877C46.3787 43.9478 46.4642 43.8208 46.5718 43.7141C46.7864 43.5037 47.0749 43.3859 47.3755 43.3859C47.676 43.3859 47.9646 43.5037 48.1792 43.7141L50.1081 45.643L53.3458 39.1904C53.4116 39.0543 53.5041 38.9329 53.6179 38.8334C53.7316 38.7338 53.8643 38.6582 54.0079 38.6111C54.1515 38.5639 54.303 38.5462 54.4536 38.5589C54.6042 38.5717 54.7508 38.6146 54.8844 38.6852C55.0203 38.7513 55.1417 38.8436 55.2419 38.9568C55.342 39.07 55.4189 39.2018 55.4679 39.3448C55.517 39.4877 55.5373 39.6389 55.5278 39.7898C55.5183 39.9406 55.4791 40.088 55.4125 40.2237L51.417 48.1C51.3321 48.2614 51.2114 48.4011 51.0641 48.5086C50.9168 48.6161 50.7469 48.6884 50.5673 48.72L50.4296 48.743Z" fill="#FF6900"/>
</g>
<defs>
<clipPath id="clip0_301_3013">
<rect width="62" height="57.4074" fill="white" transform="translate(0.898438 0.291016)"/>
</clipPath>
</defs>
</svg>
