<svg width="63" height="61" viewBox="0 0 63 61" fill="none" xmlns="http://www.w3.org/2000/svg">
<g clip-path="url(#clip0_301_2991)">
<path d="M21.3807 22.8655H41.6193C42.0095 22.8671 42.3932 22.7655 42.7315 22.5711C43.0698 22.3766 43.3507 22.0963 43.5457 21.7584C43.7401 21.4218 43.8424 21.0399 43.8424 20.6512C43.8424 20.2625 43.7401 19.8807 43.5457 19.5441L33.4264 1.8298C33.2333 1.48903 32.9532 1.20558 32.6148 1.00838C32.2764 0.811176 31.8917 0.707275 31.5 0.707275C31.1083 0.707275 30.7237 0.811176 30.3852 1.00838C30.0468 1.20558 29.7667 1.48903 29.5736 1.8298L19.4543 19.5441C19.26 19.8807 19.1577 20.2625 19.1577 20.6512C19.1577 21.0399 19.26 21.4218 19.4543 21.7584C19.6494 22.0963 19.9303 22.3766 20.2686 22.5711C20.6069 22.7655 20.9905 22.8671 21.3807 22.8655ZM31.5 2.93694L41.6193 20.6512H21.3807L31.5 2.93694Z" fill="white"/>
<path d="M61.3929 58.2942H58.0714V53.8656C58.0714 53.2783 57.8381 52.7151 57.4228 52.2999C57.0076 51.8846 56.4444 51.6513 55.8571 51.6513H51.4286C50.8413 51.6513 50.2781 51.8846 49.8629 52.2999C49.4476 52.7151 49.2143 53.2783 49.2143 53.8656V58.2942H47V45.0085C47 44.4212 46.7667 43.858 46.3514 43.4427C45.9362 43.0275 45.373 42.7942 44.7857 42.7942H40.3571C39.7699 42.7942 39.2067 43.0275 38.7914 43.4427C38.3762 43.858 38.1429 44.4212 38.1429 45.0085V58.2942H35.9286V51.6513C35.9286 51.0641 35.6952 50.5008 35.28 50.0856C34.8647 49.6703 34.3015 49.437 33.7143 49.437H29.2857C28.6984 49.437 28.1353 49.6703 27.72 50.0856C27.3048 50.5008 27.0714 51.0641 27.0714 51.6513V58.2942H24.8571V38.3656C24.8571 37.7784 24.6238 37.2151 24.2086 36.7999C23.7933 36.3846 23.2301 36.1513 22.6429 36.1513H18.2143C17.627 36.1513 17.0638 36.3846 16.6486 36.7999C16.2333 37.2151 16 37.7784 16 38.3656V58.2942H13.7857V29.5085C13.7857 28.9212 13.5524 28.358 13.1371 27.9427C12.7219 27.5275 12.1587 27.2942 11.5714 27.2942H7.14286C6.55559 27.2942 5.99241 27.5275 5.57715 27.9427C5.16189 28.358 4.92857 28.9212 4.92857 29.5085V58.2942H1.60714C1.31351 58.2942 1.03192 58.4108 0.824291 58.6185C0.616661 58.8261 0.5 59.1077 0.5 59.4013C0.5 59.695 0.616661 59.9766 0.824291 60.1842C1.03192 60.3918 1.31351 60.5085 1.60714 60.5085H61.3929C61.6865 60.5085 61.9681 60.3918 62.1757 60.1842C62.3833 59.9766 62.5 59.695 62.5 59.4013C62.5 59.1077 62.3833 58.8261 62.1757 58.6185C61.9681 58.4108 61.6865 58.2942 61.3929 58.2942ZM7.14286 58.2942V29.5085H11.5714V58.2942H7.14286ZM18.2143 58.2942V38.3656H22.6429V58.2942H18.2143ZM29.2857 58.2942V51.6513H33.7143V58.2942H29.2857ZM40.3571 58.2942V45.0085H44.7857V58.2942H40.3571ZM51.4286 58.2942V53.8656H55.8571V58.2942H51.4286Z" fill="white"/>
<path d="M31.5 14.0083C31.7937 14.0083 32.0752 13.8917 32.2829 13.6841C32.4905 13.4764 32.6072 13.1948 32.6072 12.9012V8.47262C32.6072 8.17899 32.4905 7.89739 32.2829 7.68976C32.0752 7.48213 31.7937 7.36548 31.5 7.36548C31.2064 7.36548 30.9248 7.48213 30.7172 7.68976C30.5095 7.89739 30.3929 8.17899 30.3929 8.47262V12.9012C30.3929 13.1948 30.5095 13.4764 30.7172 13.6841C30.9248 13.8917 31.2064 14.0083 31.5 14.0083Z" fill="#9fef00"/>
<path d="M31.5 18.4369C32.1115 18.4369 32.6072 17.9413 32.6072 17.3298C32.6072 16.7183 32.1115 16.2227 31.5 16.2227C30.8886 16.2227 30.3929 16.7183 30.3929 17.3298C30.3929 17.9413 30.8886 18.4369 31.5 18.4369Z" fill="#9fef00"/>
<path d="M57.8279 41.0226C57.7897 40.729 57.6364 40.4625 57.4018 40.2819C57.1672 40.1012 56.8704 40.0212 56.5768 40.0594C56.2832 40.0976 56.0167 40.2508 55.836 40.4854C55.6554 40.7201 55.5754 41.0168 55.6136 41.3105L55.9236 43.5247L43.3464 30.9697C43.1928 30.8094 42.9935 30.7 42.7758 30.6565C42.558 30.6129 42.3321 30.6372 42.1285 30.7262L31.655 35.1547L10.0214 18.8797C9.82779 18.7307 9.59035 18.6499 9.34604 18.6499C9.10173 18.6499 8.86429 18.7307 8.6707 18.8797L4.61852 22.0019C4.39187 22.1847 4.24467 22.448 4.20753 22.7368C4.1704 23.0257 4.24621 23.3177 4.41924 23.5519C4.59869 23.7834 4.86259 23.9343 5.1531 23.9717C5.44362 24.009 5.73709 23.9297 5.96927 23.7512L9.35712 21.094L30.8357 37.369C30.9939 37.4831 31.1785 37.5552 31.3721 37.5784C31.5658 37.6017 31.7622 37.5753 31.9429 37.5019L42.3279 33.0733L54.2628 45.0305L52.1592 44.7205C51.8661 44.6824 51.5698 44.7608 51.3338 44.9388C51.0978 45.1168 50.9411 45.3803 50.8971 45.6726C50.859 45.9599 50.935 46.2506 51.1089 46.4825C51.2828 46.7143 51.5406 46.8687 51.8271 46.9126L57.2743 47.7097H57.4293C57.5887 47.7113 57.7465 47.6784 57.8921 47.6134C58.0376 47.5483 58.1674 47.4526 58.2725 47.3327C58.3776 47.2129 58.4556 47.0718 58.5012 46.919C58.5467 46.7662 58.5587 46.6054 58.5364 46.4476L57.8279 41.0226Z" fill="#9fef00"/>
</g>
<defs>
<clipPath id="clip0_301_2991">
<rect width="62" height="59.7857" fill="white" transform="translate(0.5 0.722656)"/>
</clipPath>
</defs>
</svg>
